<svg width="16" height="20" viewBox="0 0 16 20" fill="none" xmlns="http://www.w3.org/2000/svg">
<g clip-path="url(#clip0_13_96)">
<path d="M4.69052 1.25422C5.20532 1.09901 5.75775 1.12479 6.25586 1.32729C6.75397 1.52978 7.16769 1.89677 7.42816 2.36716L7.51522 2.54246L8.29405 4.27304C8.53041 4.79832 8.60713 5.38149 8.51468 5.95003C8.42222 6.51856 8.16467 7.04738 7.77405 7.47069L7.61758 7.62599L6.39052 8.77069C6.16934 8.9801 6.33522 9.79069 7.13522 11.1766C7.85522 12.4236 8.44111 13.006 8.72934 13.0378H8.77993L8.84228 13.026L11.254 12.2883C11.5782 12.1889 11.9241 12.185 12.2504 12.277C12.5767 12.369 12.8696 12.5531 13.094 12.8072L13.2011 12.9425L14.7976 15.1542C15.1105 15.5877 15.2664 16.1149 15.2396 16.6489C15.2129 17.1828 15.0051 17.6918 14.6505 18.0919L14.507 18.2401L13.8693 18.8448C13.2967 19.3871 12.5805 19.7535 11.8057 19.9005C11.0309 20.0476 10.2302 19.969 9.49875 19.6742C7.22228 18.7566 5.15405 16.6601 3.27522 13.406C1.39287 10.1436 0.610518 7.3001 0.959929 4.86481C1.06566 4.12865 1.3688 3.43487 1.83715 2.85716C2.30549 2.27944 2.92156 1.83935 3.61993 1.58363L3.84699 1.50834L4.69052 1.25422Z" fill="#0025B7"/>
</g>
<defs>
<clipPath id="clip0_13_96">
<rect width="15.2941" height="20" fill="white"/>
</clipPath>
</defs>
</svg>
