<svg width="22" height="22" viewBox="0 0 22 22" fill="none" xmlns="http://www.w3.org/2000/svg">
<path d="M18.7435 3.26281C17.7284 2.23768 16.5208 1.42323 15.19 0.866234C13.8592 0.309237 12.4315 0.0206737 10.9888 0.017123C9.54615 0.0135723 8.11701 0.295104 6.78349 0.845543C5.44998 1.39598 4.23836 2.20448 3.21825 3.22459C2.19813 4.24471 1.38964 5.45632 0.839196 6.78984C0.288756 8.12336 0.00722463 9.5525 0.0107754 10.9951C0.0143261 12.4378 0.302889 13.8655 0.859886 15.1963C1.41688 16.5271 2.23134 17.7347 3.25646 18.7498C4.27154 19.7749 5.47916 20.5894 6.80995 21.1464C8.14075 21.7034 9.56848 21.9919 11.0111 21.9955C12.4538 21.9991 13.8829 21.7175 15.2164 21.1671C16.55 20.6166 17.7616 19.8081 18.7817 18.788C19.8018 17.7679 20.6103 16.5563 21.1607 15.2228C21.7112 13.8893 21.9927 12.4601 21.9892 11.0175C21.9856 9.57483 21.697 8.14709 21.14 6.8163C20.583 5.48551 19.7686 4.27788 18.7435 3.26281ZM1.6133 11.0063C1.61295 10.1755 1.7231 9.34843 1.94086 8.54671C2.2997 9.31916 2.82086 9.98649 3.1753 10.779C3.63339 11.7978 4.86343 11.5152 5.40659 12.408C5.88863 13.2004 5.37383 14.2027 5.73463 15.0318C5.99668 15.6336 6.61463 15.7652 7.04095 16.2052C7.47654 16.6491 7.46726 17.2572 7.53374 17.8361C7.60877 18.5162 7.73047 19.1903 7.89797 19.8537C7.89797 19.8586 7.89797 19.864 7.90188 19.8689C4.24352 18.5841 1.6133 15.0968 1.6133 11.0063ZM11 20.393C10.4758 20.3928 9.95246 20.349 9.43552 20.262C9.4409 20.1295 9.44334 20.0058 9.45654 19.9197C9.57534 19.1424 9.9645 18.3822 10.4896 17.8004C11.0083 17.2264 11.7191 16.8383 12.1572 16.1871C12.5864 15.5515 12.715 14.696 12.538 13.9533C12.2774 12.8563 10.7868 12.4901 9.98308 11.8951C9.52108 11.5529 9.10992 11.0239 8.50321 10.9809C8.22357 10.9613 7.98939 11.0215 7.71219 10.9501C7.45797 10.8841 7.2585 10.7472 6.98766 10.7829C6.48166 10.8494 6.16241 11.3901 5.61877 11.3168C5.10299 11.2478 4.57157 10.644 4.45424 10.1527C4.30366 9.52107 4.8033 9.31622 5.33863 9.26C5.56206 9.23654 5.81286 9.21111 6.02748 9.29325C6.31006 9.39787 6.44352 9.67458 6.69726 9.8144C7.17295 10.0755 7.26926 9.65845 7.19641 9.23605C7.08739 8.60342 6.96028 8.34578 7.52446 7.91018C7.91557 7.61 8.24997 7.39294 8.18739 6.85369C8.15023 6.53689 7.97668 6.39365 8.1385 6.07831C8.26121 5.83827 8.59805 5.62169 8.81757 5.47845C9.38419 5.10885 11.2449 5.13623 10.4847 4.10174C10.2613 3.79814 9.84912 3.25547 9.45801 3.18116C8.96912 3.08876 8.75206 3.63436 8.4113 3.87489C8.0593 4.12374 7.37388 4.40632 7.02139 4.02156C6.54717 3.50383 7.33574 3.33418 7.51028 2.97241C7.59094 2.80374 7.51028 2.56956 7.37437 2.34907C7.55069 2.27476 7.72995 2.20583 7.91214 2.14227C8.02633 2.22661 8.16178 2.2774 8.30326 2.28894C8.63032 2.31045 8.93881 2.13347 9.22432 2.35641C9.54112 2.60085 9.76943 2.90983 10.1899 2.98609C10.5966 3.05992 11.0273 2.82281 11.1281 2.40627C11.1892 2.15303 11.1281 1.88561 11.0694 1.62405C12.8978 1.63457 14.6829 2.18216 16.2027 3.19876C16.1049 3.16161 15.9881 3.16601 15.8439 3.23298C15.5471 3.37085 15.1267 3.72187 15.092 4.06996C15.0524 4.46498 15.6351 4.52072 15.9118 4.52072C16.3274 4.52072 16.7483 4.33494 16.6144 3.85485C16.5562 3.64658 16.477 3.43001 16.3494 3.29898C16.6561 3.51183 16.95 3.74266 17.2294 3.99027C17.225 3.99467 17.2206 3.99858 17.2162 4.00347C16.9346 4.2968 16.6075 4.52903 16.4149 4.88592C16.279 5.1372 16.126 5.25649 15.8507 5.32152C15.6992 5.3572 15.5261 5.3704 15.399 5.47209C15.045 5.75076 15.2465 6.42054 15.5818 6.62147C16.0057 6.8752 16.6344 6.75591 16.9541 6.39365C17.204 6.11009 17.3511 5.61778 17.8004 5.61827C17.9982 5.61786 18.1882 5.69531 18.3294 5.83387C18.5152 6.02649 18.4785 6.2064 18.5181 6.44694C18.588 6.87423 18.9649 6.64249 19.1942 6.42689C19.3614 6.72434 19.5122 7.03068 19.646 7.34454C19.3937 7.70778 19.1932 8.10378 18.5865 7.6804C18.2233 7.42667 17.9999 7.05854 17.5437 6.94414C17.1453 6.84636 16.7371 6.94805 16.3435 7.016C15.8962 7.09374 15.3657 7.12796 15.0265 7.46676C14.6984 7.79334 14.5249 8.2304 14.1758 8.55845C13.5006 9.194 13.2156 9.88773 13.6527 10.7863C14.0731 11.6502 14.9526 12.119 15.9016 12.0574C16.8339 11.9953 17.8024 11.4546 17.7755 12.8093C17.7657 13.2889 17.8659 13.6209 18.0131 14.0663C18.1495 14.4769 18.1402 14.8749 18.1715 15.2988C18.2012 15.7951 18.2788 16.2874 18.4032 16.7688C17.5269 17.8971 16.4044 18.8101 15.1213 19.4382C13.8382 20.0664 12.4285 20.3929 11 20.393Z" fill="#2853FF"/>
</svg>
