<svg width="20" height="20" viewBox="0 0 20 20" fill="none" xmlns="http://www.w3.org/2000/svg">
<path d="M10.0007 6.7456C8.20874 6.7456 6.74634 8.208 6.74634 9.99999C6.74634 11.792 8.20874 13.2544 10.0007 13.2544C11.7927 13.2544 13.2551 11.792 13.2551 9.99999C13.2551 8.208 11.7927 6.7456 10.0007 6.7456ZM19.7615 9.99999C19.7615 8.65234 19.7737 7.31689 19.698 5.97167C19.6223 4.40917 19.2659 3.02245 18.1233 1.87988C16.9783 0.734857 15.594 0.380853 14.0315 0.30517C12.6838 0.229486 11.3484 0.241693 10.0032 0.241693C8.65551 0.241693 7.32007 0.229486 5.97485 0.30517C4.41235 0.380853 3.02563 0.737298 1.88305 1.87988C0.738031 3.0249 0.384027 4.40917 0.308343 5.97167C0.23266 7.31933 0.244867 8.65478 0.244867 9.99999C0.244867 11.3452 0.23266 12.6831 0.308343 14.0283C0.384027 15.5908 0.740473 16.9775 1.88305 18.1201C3.02807 19.2651 4.41235 19.6191 5.97485 19.6948C7.32251 19.7705 8.65796 19.7583 10.0032 19.7583C11.3508 19.7583 12.6863 19.7705 14.0315 19.6948C15.594 19.6191 16.9807 19.2627 18.1233 18.1201C19.2683 16.9751 19.6223 15.5908 19.698 14.0283C19.7761 12.6831 19.7615 11.3476 19.7615 9.99999ZM10.0007 15.0073C7.22973 15.0073 4.9934 12.771 4.9934 9.99999C4.9934 7.229 7.22973 4.99267 10.0007 4.99267C12.7717 4.99267 15.0081 7.229 15.0081 9.99999C15.0081 12.771 12.7717 15.0073 10.0007 15.0073ZM15.2131 5.95702C14.5662 5.95702 14.0437 5.43456 14.0437 4.78759C14.0437 4.14062 14.5662 3.61816 15.2131 3.61816C15.8601 3.61816 16.3826 4.14062 16.3826 4.78759C16.3828 4.94122 16.3526 5.09337 16.2939 5.23534C16.2352 5.37731 16.1491 5.50631 16.0405 5.61494C15.9319 5.72357 15.8029 5.8097 15.6609 5.8684C15.5189 5.9271 15.3668 5.95722 15.2131 5.95702Z" fill="#0025B7"/>
</svg>
