<svg width="17" height="17" viewBox="0 0 17 17" fill="none" xmlns="http://www.w3.org/2000/svg">
<path d="M4.49294 3.49778C4.5588 3.56357 4.61105 3.64169 4.64669 3.72768C4.68234 3.81367 4.70069 3.90584 4.70069 3.99893C4.70069 4.09202 4.68234 4.18419 4.64669 4.27018C4.61105 4.35617 4.5588 4.43429 4.49294 4.50008C3.43004 5.56315 2.83293 7.00489 2.83293 8.50818C2.83293 10.0115 3.43004 11.4532 4.49294 12.5163C4.55871 12.5821 4.61087 12.6602 4.64644 12.7462C4.68201 12.8322 4.70031 12.9243 4.70027 13.0173C4.70024 13.1104 4.68188 13.2025 4.64625 13.2884C4.61061 13.3744 4.5584 13.4525 4.49259 13.5182C4.42678 13.584 4.34866 13.6361 4.26269 13.6717C4.17672 13.7073 4.08458 13.7256 3.99155 13.7256C3.89851 13.7255 3.80639 13.7072 3.72044 13.6715C3.6345 13.6359 3.55642 13.5837 3.49065 13.5179C0.723901 10.7511 0.723901 6.26453 3.49065 3.49778C3.55644 3.43193 3.63456 3.37968 3.72055 3.34403C3.80654 3.30839 3.89871 3.29004 3.9918 3.29004C4.08488 3.29004 4.17706 3.30839 4.26305 3.34403C4.34904 3.37968 4.42716 3.43193 4.49294 3.49778ZM13.5107 3.49778C16.2775 6.26524 16.2775 10.7511 13.5107 13.5179C13.3771 13.6469 13.1982 13.7183 13.0125 13.7167C12.8268 13.7151 12.6491 13.6406 12.5178 13.5092C12.3864 13.3779 12.312 13.2002 12.3103 13.0145C12.3087 12.8288 12.3801 12.6499 12.5092 12.5163C13.572 11.4532 14.1692 10.0115 14.1692 8.50818C14.1692 7.00489 13.572 5.56315 12.5092 4.50008C12.3762 4.36726 12.3015 4.18708 12.3015 3.99918C12.3014 3.81128 12.376 3.63105 12.5088 3.49814C12.6416 3.36523 12.8218 3.29052 13.0097 3.29045C13.1976 3.29039 13.3778 3.36497 13.5107 3.49778ZM6.59457 5.53353C6.72736 5.66637 6.80196 5.8465 6.80196 6.03433C6.80196 6.22215 6.72736 6.40229 6.59457 6.53512C6.3367 6.79296 6.13215 7.09907 5.99259 7.43597C5.85303 7.77287 5.7812 8.13396 5.7812 8.49862C5.7812 8.86328 5.85303 9.22437 5.99259 9.56127C6.13215 9.89817 6.3367 10.2043 6.59457 10.4621C6.66222 10.5275 6.71618 10.6056 6.75331 10.692C6.79043 10.7785 6.80997 10.8714 6.81079 10.9655C6.8116 11.0595 6.79368 11.1528 6.75807 11.2398C6.72245 11.3269 6.66985 11.406 6.60335 11.4725C6.53684 11.539 6.45775 11.5916 6.3707 11.6272C6.28365 11.6628 6.19038 11.6807 6.09632 11.6799C6.00227 11.6791 5.90933 11.6596 5.82291 11.6224C5.73649 11.5853 5.65833 11.5314 5.59298 11.4637C4.80661 10.6773 4.36484 9.61073 4.36484 8.49862C4.36484 7.3865 4.80661 6.31993 5.59298 5.53353C5.72582 5.40074 5.90595 5.32614 6.09378 5.32614C6.2816 5.32614 6.46174 5.40074 6.59457 5.53353ZM11.5239 5.53353C12.3102 6.31993 12.752 7.3865 12.752 8.49862C12.752 9.61073 12.3102 10.6773 11.5239 11.4637C11.4581 11.5295 11.38 11.5817 11.2941 11.6174C11.2081 11.653 11.116 11.6714 11.023 11.6714C10.9299 11.6714 10.8378 11.6531 10.7518 11.6176C10.6659 11.582 10.5877 11.5298 10.5219 11.4641C10.4561 11.3983 10.4039 11.3202 10.3683 11.2343C10.3326 11.1483 10.3143 11.0562 10.3142 10.9632C10.3142 10.8701 10.3325 10.778 10.3681 10.692C10.4036 10.606 10.4558 10.5279 10.5216 10.4621C10.7794 10.2043 10.984 9.89817 11.1235 9.56127C11.2631 9.22437 11.3349 8.86328 11.3349 8.49862C11.3349 8.13396 11.2631 7.77287 11.1235 7.43597C10.984 7.09907 10.7794 6.79296 10.5216 6.53512C10.3887 6.4022 10.3142 6.22197 10.3142 6.03408C10.3143 5.84618 10.389 5.666 10.5219 5.53318C10.6548 5.40036 10.8351 5.32578 11.023 5.32585C11.2109 5.32592 11.391 5.40062 11.5239 5.53353ZM8.55807 7.49562C8.6976 7.49562 8.83576 7.5231 8.96467 7.5765C9.09358 7.62989 9.21071 7.70815 9.30937 7.80682C9.40803 7.90548 9.48629 8.02261 9.53969 8.15152C9.59309 8.28042 9.62057 8.41859 9.62057 8.55812C9.62057 8.69765 9.59309 8.83581 9.53969 8.96472C9.48629 9.09363 9.40803 9.21076 9.30937 9.30942C9.21071 9.40808 9.09358 9.48634 8.96467 9.53974C8.83576 9.59313 8.6976 9.62062 8.55807 9.62062C8.27627 9.62062 8.00602 9.50868 7.80677 9.30942C7.60751 9.11016 7.49557 8.83991 7.49557 8.55812C7.49557 8.27632 7.60751 8.00607 7.80677 7.80682C8.00602 7.60756 8.27627 7.49562 8.55807 7.49562Z" fill="white"/>
</svg>
