<svg width="18" height="22" viewBox="0 0 18 22" fill="none" xmlns="http://www.w3.org/2000/svg">
<g clip-path="url(#clip0_1_860)">
<path d="M8.64287 0C6.35147 0.00270323 4.15469 0.914156 2.53443 2.53442C0.914164 4.15468 0.00271242 6.35146 9.19512e-06 8.64286C-0.00273522 10.5154 0.608922 12.3371 1.74115 13.8286C1.74115 13.8286 1.97687 14.1389 2.01537 14.1837L8.64287 22L15.2735 14.1798C15.3081 14.1381 15.5446 13.8286 15.5446 13.8286L15.5454 13.8262C16.677 12.3354 17.2884 10.5145 17.2857 8.64286C17.283 6.35146 16.3716 4.15468 14.7513 2.53442C13.131 0.914156 10.9343 0.00270323 8.64287 0ZM8.64287 11.7857C8.02127 11.7857 7.41363 11.6014 6.89679 11.256C6.37995 10.9107 5.97712 10.4199 5.73924 9.84558C5.50137 9.27129 5.43913 8.63937 5.5604 8.02972C5.68167 7.42006 5.98099 6.86006 6.42053 6.42052C6.86007 5.98098 7.42007 5.68166 8.02973 5.56039C8.63938 5.43912 9.2713 5.50136 9.84558 5.73924C10.4199 5.97711 10.9107 6.37994 11.2561 6.89678C11.6014 7.41362 11.7857 8.02126 11.7857 8.64286C11.7847 9.47608 11.4532 10.2749 10.8641 10.864C10.2749 11.4532 9.47608 11.7847 8.64287 11.7857Z" fill="#2853FF"/>
</g>
<defs>
<clipPath id="clip0_1_860">
<rect width="17.2857" height="22" fill="white"/>
</clipPath>
</defs>
</svg>
