<svg width="21" height="15" viewBox="0 0 21 15" fill="none" xmlns="http://www.w3.org/2000/svg">
<path d="M20.6504 12.3457V1.76367C20.6504 0.787772 19.8626 0 18.8867 0H2.41406C1.43816 0 0.650391 0.787772 0.650391 1.76367V12.3457C0.650391 13.3216 1.43816 14.1093 2.41406 14.1093H18.8867C19.8626 14.1093 20.6504 13.3216 20.6504 12.3457ZM19.1101 1.63433C19.4981 2.02234 19.2865 2.4221 19.0748 2.62199L14.3012 6.99588L18.8867 11.7695C19.0278 11.9342 19.1219 12.1928 18.9573 12.3692C18.8044 12.5573 18.4517 12.5456 18.2988 12.428L13.1607 8.04233L10.6445 10.3351L8.1401 8.04233L3.00195 12.428C2.8491 12.5456 2.49636 12.5573 2.34351 12.3692C2.1789 12.1928 2.27297 11.9342 2.41406 11.7695L6.9996 6.99588L2.22593 2.62199C2.01429 2.4221 1.80265 2.02234 2.19066 1.63433C2.57867 1.24633 2.97843 1.43445 3.30765 1.71664L10.6445 7.64256L17.9931 1.71664C18.3223 1.43445 18.7221 1.24633 19.1101 1.63433Z" fill="#0025B7"/>
</svg>
