<svg width="31" height="30" viewBox="0 0 31 30" fill="none" xmlns="http://www.w3.org/2000/svg">
<g clip-path="url(#clip0_1_489)">
<path d="M5.97782 0C2.94335 0 0.5 2.44335 0.5 5.47782V24.5222C0.5 27.5567 2.94335 30 5.97782 30H16.2997V18.2719H13.1985V14.0494H16.2997V10.4419C16.2997 7.60764 18.1321 5.00532 22.3531 5.00532C24.0622 5.00532 25.326 5.16939 25.326 5.16939L25.2266 9.11253C25.2266 9.11253 23.9377 9.10035 22.5312 9.10035C21.0091 9.10035 20.765 9.80169 20.765 10.966V14.0494H25.3475L25.1478 18.2719H20.765V30.0001H25.0222C28.0567 30.0001 30.5 27.5567 30.5 24.5222V5.47785C30.5 2.44338 28.0567 3e-05 25.0222 3e-05H5.97779L5.97782 0Z" fill="white"/>
</g>
<defs>
<clipPath id="clip0_1_489">
<rect width="30" height="30" fill="white" transform="translate(0.5)"/>
</clipPath>
</defs>
</svg>
