<svg width="31" height="20" viewBox="0 0 31 20" fill="none" xmlns="http://www.w3.org/2000/svg">
<g clip-path="url(#clip0_1_481)">
<path d="M29.5936 3.26832C29.427 2.67424 29.1026 2.13639 28.6548 1.71195C28.1944 1.27445 27.6301 0.961503 27.0151 0.802636C24.7137 0.196018 15.4931 0.196018 15.4931 0.196018C11.6491 0.152284 7.80609 0.344639 3.98571 0.771999C3.37075 0.942603 2.80748 1.26255 2.346 1.70337C1.89257 2.13965 1.56414 2.67764 1.39257 3.2671C0.980432 5.48737 0.780186 7.74178 0.794534 9.99994C0.779828 12.2561 0.979583 14.5097 1.39257 16.7328C1.56047 17.3198 1.88767 17.8553 2.34233 18.2879C2.79698 18.7205 3.36316 19.033 3.98571 19.1985C6.31782 19.8039 15.4931 19.8039 15.4931 19.8039C19.3419 19.8477 23.1898 19.6553 27.0151 19.2279C27.6301 19.069 28.1944 18.7561 28.6548 18.3186C29.1025 17.8942 29.4265 17.3563 29.5923 16.7622C30.0152 14.5428 30.2209 12.2874 30.2063 10.0281C30.2381 7.75926 30.0327 5.49328 29.5936 3.2671V3.26832ZM12.5617 14.196V5.80509L20.2333 10.0012L12.5617 14.196Z" fill="white"/>
</g>
<defs>
<clipPath id="clip0_1_481">
<rect width="30.5882" height="20" fill="white" transform="translate(0.205887)"/>
</clipPath>
</defs>
</svg>
