<svg width="31" height="30" viewBox="0 0 31 30" fill="none" xmlns="http://www.w3.org/2000/svg">
<g clip-path="url(#clip0_1_476)">
<path d="M15.5011 10.1184C12.8131 10.1184 10.6195 12.312 10.6195 15C10.6195 17.688 12.8131 19.8816 15.5011 19.8816C18.1891 19.8816 20.3827 17.688 20.3827 15C20.3827 12.312 18.1891 10.1184 15.5011 10.1184ZM30.1422 15C30.1422 12.9785 30.1605 10.9753 30.047 8.95751C29.9335 6.61376 29.3988 4.53368 27.6849 2.81981C25.9674 1.10229 23.891 0.57128 21.5472 0.457754C19.5258 0.344229 17.5226 0.362539 15.5048 0.362539C13.4833 0.362539 11.4801 0.344229 9.46228 0.457754C7.11852 0.57128 5.03844 1.10595 3.32458 2.81981C1.60705 4.53734 1.07604 6.61376 0.962515 8.95751C0.84899 10.979 0.8673 12.9822 0.8673 15C0.8673 17.0178 0.84899 19.0246 0.962515 21.0425C1.07604 23.3862 1.61071 25.4663 3.32458 27.1802C5.04211 28.8977 7.11852 29.4287 9.46228 29.5422C11.4838 29.6557 13.4869 29.6374 15.5048 29.6374C17.5262 29.6374 19.5294 29.6557 21.5472 29.5422C23.891 29.4287 25.9711 28.894 27.6849 27.1802C29.4025 25.4626 29.9335 23.3862 30.047 21.0425C30.1642 19.0246 30.1422 17.0215 30.1422 15ZM15.5011 22.511C11.3446 22.511 7.99011 19.1565 7.99011 15C7.99011 10.8435 11.3446 7.489 15.5011 7.489C19.6576 7.489 23.0121 10.8435 23.0121 15C23.0121 19.1565 19.6576 22.511 15.5011 22.511ZM23.3197 8.93554C22.3492 8.93554 21.5656 8.15184 21.5656 7.18139C21.5656 6.21093 22.3492 5.42724 23.3197 5.42724C24.2902 5.42724 25.0739 6.21093 25.0739 7.18139C25.0741 7.41183 25.029 7.64006 24.9409 7.85301C24.8529 8.06597 24.7237 8.25946 24.5607 8.4224C24.3978 8.58535 24.2043 8.71455 23.9913 8.8026C23.7784 8.89065 23.5501 8.93583 23.3197 8.93554Z" fill="white"/>
</g>
<defs>
<clipPath id="clip0_1_476">
<rect width="30" height="30" fill="white" transform="translate(0.5)"/>
</clipPath>
</defs>
</svg>
