<svg width="31" height="20" viewBox="0 0 31 20" fill="none" xmlns="http://www.w3.org/2000/svg">
<g clip-path="url(#clip0_13_92)">
<path d="M29.3877 3.26832C29.2211 2.67424 28.8967 2.13639 28.4489 1.71195C27.9885 1.27445 27.4242 0.961503 26.8092 0.802636C24.5078 0.196018 15.2872 0.196018 15.2872 0.196018C11.4432 0.152284 7.6002 0.344639 3.77982 0.771999C3.16486 0.942603 2.60159 1.26255 2.14012 1.70337C1.68669 2.13965 1.35825 2.67764 1.18669 3.2671C0.774545 5.48737 0.574299 7.74178 0.588647 9.99994C0.573941 12.2561 0.773696 14.5097 1.18669 16.7328C1.35458 17.3198 1.68178 17.8553 2.13644 18.2879C2.5911 18.7205 3.15727 19.033 3.77982 19.1985C6.11193 19.8039 15.2872 19.8039 15.2872 19.8039C19.136 19.8477 22.9839 19.6553 26.8092 19.2279C27.4242 19.069 27.9885 18.7561 28.4489 18.3186C28.8966 17.8942 29.2206 17.3563 29.3864 16.7622C29.8093 14.5428 30.015 12.2874 30.0004 10.0281C30.0322 7.75926 29.8269 5.49328 29.3877 3.2671V3.26832ZM12.3558 14.196V5.80509L20.0274 10.0012L12.3558 14.196Z" fill="#0025B7"/>
</g>
<defs>
<clipPath id="clip0_13_92">
<rect width="30.5882" height="20" fill="white"/>
</clipPath>
</defs>
</svg>
